<?xml version="1.0" encoding="UTF-8"?>
<svg id="Layer_2" data-name="Layer 2" xmlns="http://www.w3.org/2000/svg" xmlns:xlink="http://www.w3.org/1999/xlink" viewBox="0 0 748.29 176">
  <defs>
    <style>
      .cls-1 {
        fill: url(#linear-gradient-2);
      }

      .cls-2, .cls-3 {
        fill: #fff;
      }

      .cls-2, .cls-4 {
        stroke: #fff;
        stroke-miterlimit: 10;
      }

      .cls-5 {
        font-size: 36.27px;
      }

      .cls-5, .cls-6 {
        fill: #1d90e8;
        font-family: MADETOMMY-Bold, 'MADE TOMMY';
        font-weight: 700;
      }

      .cls-4 {
        fill: none;
      }

      .cls-7 {
        fill: url(#linear-gradient-4);
      }

      .cls-8 {
        fill: url(#linear-gradient-3);
      }

      .cls-9 {
        fill: url(#linear-gradient-5);
      }

      .cls-10 {
        letter-spacing: 0em;
      }

      .cls-11 {
        letter-spacing: 0em;
      }

      .cls-12 {
        letter-spacing: -.02em;
      }

      .cls-13 {
        letter-spacing: -.03em;
      }

      .cls-14 {
        letter-spacing: -.01em;
      }

      .cls-6 {
        font-size: 107.38px;
      }

      .cls-15 {
        letter-spacing: -.02em;
      }

      .cls-16 {
        fill: url(#linear-gradient);
      }

      .cls-17 {
        clip-path: url(#clippath);
      }
    </style>
    <linearGradient id="linear-gradient" x1="-12.99" y1="-84.99" x2="220.23" y2="148.23" gradientUnits="userSpaceOnUse">
      <stop offset="0" stop-color="#1d90e8"/>
      <stop offset=".23" stop-color="#1d94e8"/>
      <stop offset=".47" stop-color="#1da0e8"/>
      <stop offset=".49" stop-color="#1da2e8"/>
      <stop offset=".73" stop-color="#1da0e8"/>
      <stop offset=".82" stop-color="#1d99ea"/>
      <stop offset=".88" stop-color="#1d8dee"/>
      <stop offset=".93" stop-color="#1d7cf3"/>
      <stop offset=".97" stop-color="#1d66fa"/>
      <stop offset=".99" stop-color="#1d5aff"/>
    </linearGradient>
    <linearGradient id="linear-gradient-2" x1="125.28" y1="133.92" x2="187.6" y2="196.23" xlink:href="#linear-gradient"/>
    <linearGradient id="linear-gradient-3" x1="35.59" y1="47.59" x2="243.11" y2="255.11" xlink:href="#linear-gradient"/>
    <linearGradient id="linear-gradient-4" x1="-60.83" y1="-60.83" x2="172.39" y2="172.39" xlink:href="#linear-gradient"/>
    <linearGradient id="linear-gradient-5" x1="-18.97" y1="65.03" x2="214.25" y2="298.25" xlink:href="#linear-gradient"/>
    <clipPath id="clippath">
      <path class="cls-2" d="M94.53,51.08c-.73,0-1.27-.01-1.81,0-4.36.12-5.37,3.64-4.37,6.46.62,1.75,1.8,3.05,3.4,3.98,1.62.93,3.36,1.43,5.21,1.54.72.04,1.44.07,2.48.12-2.95,2.27-6.12,2.72-9.55,2.83.36.62.62,1.09.9,1.54,2.69,4.26,3.06,8.8,1.55,13.52-1.52,4.79-4.4,8.7-7.98,12.14-3.3,3.18-7.04,5.75-10.99,8.04-.12.07-.22.17-.42.33.24.1.4.23.57.24,7.07.44,14.06.04,20.8-2.29,6.07-2.09,11.35-5.39,14.98-10.87,3.71-5.59,4.55-11.59,2.38-17.98-.75-2.19-2.07-4.04-3.41-5.88-.17-.24-.35-.48-.58-.79,1.51-2.11,3.22-4.11,4-6.87-.61-.06-1.08-.08-1.54-.15-2.18-.33-3.63-1.97-3.62-4.03,0-1.12.46-2,1.37-2.66.94-.68,2-1.06,3.15-1.21.34-.04.68-.07,1.11-.12-.02-.3.03-.55-.05-.75-2.58-6.35-7.22-10.14-14.04-11.08-8.75-1.21-15.74,4.52-18.8,10.77-1.3,2.65-2.06,5.45-2.17,8.41-.06,1.53-.14,3.06-.19,4.6-.01.43.04.87.07,1.39.43-.03.76-.03,1.08-.07,2.7-.41,5.32-.25,7.85.87,1.26.56,1.78.49,3.67-.28-.36-.22-.63-.34-.85-.51-2.01-1.66-3.19-3.81-3.38-6.38-.22-2.81,1.24-5.35,4.02-6.46,1.49-.6,3.06-.76,4.73-.53.26-.5.5-.99.76-1.45.99-1.71,3.02-2.62,4.8-2.17,2.17.55,3.44,2.5,3.07,4.73-.33,2.01-2.48,3.56-4.62,3.31-1.06-.12-2.02-.5-2.77-1.29-.31-.32-.55-.7-.8-1.01h0Z"/>
    </clipPath>
  </defs>
  <g id="Layer_1-2" data-name="Layer 1">
    <g>
      <rect class="cls-16" x="84" y="12" width="80" height="80" rx="20" ry="20"/>
      <rect class="cls-3" x="84" y="96" width="80" height="80" rx="20" ry="20"/>
      <g>
        <path class="cls-1" d="M141.44,152.79l-2.39,23.21h4.95c11.05,0,20-8.95,20-20v-11.68l-15.71,1.62c-3.62.37-6.48,3.23-6.85,6.85Z"/>
        <path class="cls-8" d="M144,96h-40c-11.05,0-20,8.95-20,20v40c0,11.05,8.95,20,20,20h33.24l-2.39-23.21c-.37-3.62-3.23-6.48-6.85-6.85l-32-3.3,32-3.3c3.62-.37,6.48-3.23,6.85-6.85l3.3-32,3.3,32c.37,3.62,3.23,6.48,6.85,6.85l15.71,1.62v-24.97c0-11.05-8.95-20-20-20Z"/>
      </g>
      <rect class="cls-3" x="0" y="0" width="80" height="80" rx="20" ry="20"/>
      <path class="cls-7" d="M60,0H20C8.95,0,0,8.95,0,20v40c0,11.05,8.95,20,20,20h40c11.05,0,20-8.95,20-20V20c0-11.05-8.95-20-20-20ZM33.85,25.5c-3.62.37-6.48,3.23-6.85,6.85l-1.35,13.15-1.35-13.15c-.37-3.62-3.23-6.48-6.85-6.85l-13.15-1.35,13.15-1.35c3.62-.37,6.48-3.23,6.85-6.85l1.35-13.15,1.35,13.15c.37,3.62,3.23,6.48,6.85,6.85l13.15,1.35-13.15,1.35Z"/>
      <rect class="cls-9" x="0" y="84" width="80" height="80" rx="20" ry="20"/>
      <g>
        <path class="cls-2" d="M67.16,104.5c-.29.04-.58.05-.86.14-1.98.61-3.95,1.26-5.94,1.85-.73.21-1.35.51-1.89,1.07-5.84,6.11-11.87,11.85-17.72,17.95-.65.67-1.25,1.18-1.98,1.98,1.6,1.66,3.52,3.58,5.38,5.07,4.53-5.72,8.43-11.83,13.31-17.19-2.87,6.81-7.16,12.79-11.1,19.17.64.56,1.62.94,2.31,1.54.27-.37,1.12-.33,1.32-.66,3.95-6.62,6.93-13.43,10.87-20.06,1.92-3.23,3.85-6.45,5.76-9.68.22-.37.34-.8.5-1.19l.03.03h0Z"/>
        <path class="cls-2" d="M117.98,52.24c-1.54-.31-3.13-.54-4.69-.71-1-.11-2.06.04-3.06.23-.12.02-.23.06-.35.11-.82.35-1.15,1.43-.54,2.09.26.29.63.41,1.18.47.38.04.77.03,1.15-.02,2.17-.3,4.24-.97,6.29-1.69.67-.15.58-.24-.04-.3l.06-.18Z"/>
        <path class="cls-3" d="M65.55,68.57c2.74-2.31,5.49-4.3,8.75-5.62,0-1.14-.04-2.18,0-3.21.15-3.06.26-6.12,1.12-9.1,2.87-9.96,12.08-17.68,23.24-16.07,7.57,1.09,12.98,5.25,15.84,12.48.27.69.49,1.39.75,2.14,3.12,1.01,6.39,1.56,9.45,3.38-3.55,1.39-6.84,2.68-10.13,3.97-.7,2.83-2.02,5.29-3.65,7.58.31.48.56.85.8,1.23,4.57,7.16,4.82,14.61,1.2,22.17-2.54,5.31-6.73,9.12-11.84,11.91-6.39,3.5-13.35,4.82-20.54,5.09-2.62.1-5.24.01-8.1.01-1.07.88-2.21,1.93-3.46,2.8h0c-1,.7-1.78,1.52-2.39,2.57-3.72,6.42-4.16,8.2-7.91,14.6-2.73,4.65-5.47,9.29-8.22,13.93-.21.36-.48.68-.78,1.1-4.74-4.12-9.55-7.9-14.07-12.16,6.86-7.04,10.2-9.2,17.04-16.26v-.02c-3.97.79-7.93,1.59-11.88,2.38.67-1.39,1.45-2.51,2.29-3.6,3.98-5.16,7.27-10.72,9.8-16.72,1.37-3.23,2.62-6.51,3.82-9.8,1.56-4.31,3.53-8.38,6.48-11.93.22-.26.38-.56.59-.88M63.55,108.59c-1.98.61-3.95,1.26-5.94,1.85-.73.21-1.35.51-1.89,1.07-5.84,6.11-8.4,7.58-14.25,13.68-.65.67-1.27,1.38-2,2.18,1.6,1.66,3.37,3.03,5.23,4.52,4.23-5.55,7.72-11.44,13.31-17.19-2.87,6.81-7.16,12.79-11.1,19.17.64.56,1.26,1.09,1.96,1.69.27-.37.52-.67.71-1,3.95-6.62,4.59-8.63,8.54-15.25,1.92-3.23,3.85-6.45,5.76-9.68.22-.37.34-.8.5-1.19.04-.01.08-.03.12-.04l-.1.07c-.29.04-.58.05-.86.14h0ZM92.72,51.08c-4.36.12-5.37,3.64-4.37,6.46.97,2.74,3.33,4.4,6.53,5.2.79.2,1.6.29,2.42.33.62.03,1.27.06,2.14.1-2.95,2.27-6.12,2.72-9.55,2.83.36.62.62,1.09.9,1.54,2.69,4.26,3.06,8.8,1.55,13.52-1.52,4.79-4.4,8.7-7.98,12.14-3.3,3.18-7.04,5.75-10.99,8.04-.12.07-.22.17-.42.33.24.1.4.23.57.24,7.07.44,14.06.04,20.8-2.29,6.07-2.09,11.35-5.39,14.98-10.87,3.71-5.59,4.55-11.59,2.38-17.98-.75-2.19-2.07-4.04-3.41-5.88-.17-.24-.35-.48-.58-.79,1.51-2.11,3.22-4.11,4-6.87-.61-.06-1.08-.08-1.54-.15-2.24-.34-3.72-2.07-3.61-4.21.05-1.01.61-1.95,1.44-2.53.92-.64,1.96-1.01,3.07-1.16.34-.04.68-.07,1.11-.12-.02-.3.03-.55-.05-.75-2.58-6.35-7.22-10.14-14.04-11.08-8.75-1.21-15.74,4.52-18.8,10.77-1.3,2.65-2.06,5.45-2.17,8.41-.06,1.53-.14,3.06-.19,4.6-.01.43.04.87.07,1.39.43-.03.76-.03,1.08-.07,2.7-.41,5.32-.25,7.85.87,1.26.56,1.78.49,3.67-.28-.36-.22-.63-.34-.85-.51-2.01-1.66-3.19-3.81-3.38-6.38-.22-2.81,1.24-5.35,4.02-6.46,1.49-.6,3.06-.76,4.73-.53.26-.5.5-.99.76-1.45.99-1.71,3.02-2.62,4.8-2.17,2.17.55,3.44,2.5,3.07,4.73-.33,2.01-2.48,3.56-4.62,3.31-1.06-.12-2.02-.5-2.77-1.29-.31-.32-.55-.7-.8-1.01-.73,0-1.27-.01-1.81,0h0ZM62.51,86.67c.71.12,1.37.22,2.26.37-1.83,1.62-3.63,2.9-5.46,4.14-.73.5-1.48,1.02-2.3,1.36-1.67.69-1.93,2.17-2.45,3.79.42-.12.65-.16.86-.25,4.73-2.07,9.24-4.54,13.3-7.75.97-.77,1.92-1.14,3.12-.83-1.29,2.55-13,9.92-18.66,11.7-.26.48-.56,1.05-.87,1.6-.31.56-.62,1.1-1.08,1.92,1.12-.4,1.98-.7,2.84-1.02,4.65-1.71,9.2-3.63,13.45-6.21,3.48-2.11,6.65-4.64,9.8-7.2.71-.58,1.45-.96,2.67-1-.64.8-1.11,1.42-1.61,2-1.99,2.3-4.42,4.09-6.87,5.86-4.69,3.39-9.89,5.8-15.22,7.95-1.97.79-3.99,1.47-5.98,2.21-.28.1-.62.18-.78.39-.8,1.04-1.55,2.11-2.51,3.44.59-.1.83-.12,1.05-.19,9.58-2.85,18.71-6.69,27.19-12.02,3.07-1.93,5.97-4.09,8.45-6.74,2.9-3.09,5.37-6.47,6.4-10.7.56-2.3.64-4.59.13-6.91-.98-4.45-4.59-7.47-9.14-7.77-4.02-.26-7.46,1.15-10.67,3.38-3.65,2.54-6.37,5.9-8.51,9.76-2,3.62-3.21,7.54-4.46,11.46-.02.07.04.17.1.36,1.84-.76,3.46-1.85,4.96-3.09h0ZM113.29,51.53c-1-.11-2.06.04-3.06.23-.53.1-.17.48-.83.48-.66,1.32,0,2.05,1.03,2.18.39.05.79.05,1.18,0,2.33-.32,4.54-1.05,6.73-1.84.04-.01.04-.07,0-.08-1.69-.31-3.35-.78-5.05-.97h0ZM99.23,48.99c.48.33,1.17.13,1.39-.32.25-.52-.06-1.2-.68-1.38-.64-.19-1.13.02-1.47.84.22.26.44.64.76.86h0Z"/>
        <g>
          <path class="cls-3" d="M94.53,51.08c-.73,0-1.27-.01-1.81,0-4.36.12-5.37,3.64-4.37,6.46.62,1.75,1.8,3.05,3.4,3.98,1.62.93,3.36,1.43,5.21,1.54.72.04,1.44.07,2.48.12-2.95,2.27-6.12,2.72-9.55,2.83.36.62.62,1.09.9,1.54,2.69,4.26,3.06,8.8,1.55,13.52-1.52,4.79-4.4,8.7-7.98,12.14-3.3,3.18-7.04,5.75-10.99,8.04-.12.07-.22.17-.42.33.24.1.4.23.57.24,7.07.44,14.06.04,20.8-2.29,6.07-2.09,11.35-5.39,14.98-10.87,3.71-5.59,4.55-11.59,2.38-17.98-.75-2.19-2.07-4.04-3.41-5.88-.17-.24-.35-.48-.58-.79,1.51-2.11,3.22-4.11,4-6.87-.61-.06-1.08-.08-1.54-.15-2.18-.33-3.63-1.97-3.62-4.03,0-1.12.46-2,1.37-2.66.94-.68,2-1.06,3.15-1.21.34-.04.68-.07,1.11-.12-.02-.3.03-.55-.05-.75-2.58-6.35-7.22-10.14-14.04-11.08-8.75-1.21-15.74,4.52-18.8,10.77-1.3,2.65-2.06,5.45-2.17,8.41-.06,1.53-.14,3.06-.19,4.6-.01.43.04.87.07,1.39.43-.03.76-.03,1.08-.07,2.7-.41,5.32-.25,7.85.87,1.26.56,1.78.49,3.67-.28-.36-.22-.63-.34-.85-.51-2.01-1.66-3.19-3.81-3.38-6.38-.22-2.81,1.24-5.35,4.02-6.46,1.49-.6,3.06-.76,4.73-.53.26-.5.5-.99.76-1.45.99-1.71,3.02-2.62,4.8-2.17,2.17.55,3.44,2.5,3.07,4.73-.33,2.01-2.48,3.56-4.62,3.31-1.06-.12-2.02-.5-2.77-1.29-.31-.32-.55-.7-.8-1.01h0Z"/>
          <g class="cls-17">
            <g>
              <path class="cls-2" d="M94.45,51.17c-.73,0-1.27-.01-1.81,0-4.36.12-5.37,3.64-4.37,6.46.62,1.75,1.8,3.05,3.4,3.98,1.62.93,3.36,1.43,5.21,1.54.72.04,1.44.07,2.48.12-2.95,2.27-6.12,2.72-9.55,2.83.36.62.62,1.09.9,1.54,2.69,4.26,3.06,8.8,1.55,13.52-1.52,4.79-4.4,8.7-7.98,12.14-3.3,3.18-7.04,5.75-10.99,8.04-.12.07-.22.17-.42.33.24.1.4.23.57.24,7.07.44,14.06.04,20.8-2.29,6.07-2.09,11.35-5.39,14.98-10.87,3.71-5.59,4.55-11.59,2.38-17.98-.75-2.19-2.07-4.04-3.41-5.88-.17-.24-.35-.48-.58-.79,1.51-2.11,3.22-4.11,4-6.87-.61-.06-1.08-.08-1.54-.15-2.18-.33-3.63-1.97-3.62-4.03,0-1.12.46-2,1.37-2.66.94-.68,2-1.06,3.15-1.21.34-.04.68-.07,1.11-.12-.02-.3.03-.55-.05-.75-2.58-6.35-7.22-10.14-14.04-11.08-8.75-1.21-15.74,4.52-18.8,10.77-1.3,2.65-2.06,5.45-2.17,8.41-.06,1.53-.14,3.06-.19,4.6-.01.43.04.87.07,1.39.43-.03.76-.03,1.08-.07,2.7-.41,5.32-.25,7.85.87,1.26.56,1.78.49,3.67-.28-.36-.22-.63-.34-.85-.51-2.01-1.66-3.19-3.81-3.38-6.38-.22-2.81,1.24-5.35,4.02-6.46,1.49-.6,3.06-.76,4.73-.53.26-.5.5-.99.76-1.45.99-1.71,3.02-2.62,4.8-2.17,2.17.55,3.44,2.5,3.07,4.73-.33,2.01-2.48,3.56-4.62,3.31-1.06-.12-2.02-.5-2.77-1.29-.31-.32-.55-.7-.8-1.01h0Z"/>
              <path class="cls-2" d="M107.05,51.38l-4.27-1.25-2.01-3.5h-3.76l-.91,1.77-1.97,1.01s-2.06,1.11-2.37,1-2.1.49-2.1.49l-1.19,1.19s-.91,2.26-1.35,2.17,0,1.34,0,1.34c0,0-.55,2.28-.19,2.51s.95,1.42.95,1.42l1.49,2.38,1.79,1.19-1.19.89h-1.94s-2.24.19-2.83.25h-1.94c-1.02-.06-5.18-.66-5.18-.66l-1.48-.3-.89-.3s.3-2.1,0-2.68-.59-1.53,0-2.69,1.64-7.29,1.64-7.29l1.62-4.56s2.67-3.86,2.97-4.16,4.75-3.27,5.05-3.56,8.1-2.13,8.1-2.13c0,0,5.14-.08,5.65-.02s7.33,3.63,7.33,3.63l2.08,3.27,2.75,3.99.77,3.25-5.46,1.44-1.13-.18v.07Z"/>
            </g>
          </g>
          <path class="cls-4" d="M94.53,51.08c-.73,0-1.27-.01-1.81,0-4.36.12-5.37,3.64-4.37,6.46.62,1.75,1.8,3.05,3.4,3.98,1.62.93,3.36,1.43,5.21,1.54.72.04,1.44.07,2.48.12-2.95,2.27-6.12,2.72-9.55,2.83.36.62.62,1.09.9,1.54,2.69,4.26,3.06,8.8,1.55,13.52-1.52,4.79-4.4,8.7-7.98,12.14-3.3,3.18-7.04,5.75-10.99,8.04-.12.07-.22.17-.42.33.24.1.4.23.57.24,7.07.44,14.06.04,20.8-2.29,6.07-2.09,11.35-5.39,14.98-10.87,3.71-5.59,4.55-11.59,2.38-17.98-.75-2.19-2.07-4.04-3.41-5.88-.17-.24-.35-.48-.58-.79,1.51-2.11,3.22-4.11,4-6.87-.61-.06-1.08-.08-1.54-.15-2.18-.33-3.63-1.97-3.62-4.03,0-1.12.46-2,1.37-2.66.94-.68,2-1.06,3.15-1.21.34-.04.68-.07,1.11-.12-.02-.3.03-.55-.05-.75-2.58-6.35-7.22-10.14-14.04-11.08-8.75-1.21-15.74,4.52-18.8,10.77-1.3,2.65-2.06,5.45-2.17,8.41-.06,1.53-.14,3.06-.19,4.6-.01.43.04.87.07,1.39.43-.03.76-.03,1.08-.07,2.7-.41,5.32-.25,7.85.87,1.26.56,1.78.49,3.67-.28-.36-.22-.63-.34-.85-.51-2.01-1.66-3.19-3.81-3.38-6.38-.22-2.81,1.24-5.35,4.02-6.46,1.49-.6,3.06-.76,4.73-.53.26-.5.5-.99.76-1.45.99-1.71,3.02-2.62,4.8-2.17,2.17.55,3.44,2.5,3.07,4.73-.33,2.01-2.48,3.56-4.62,3.31-1.06-.12-2.02-.5-2.77-1.29-.31-.32-.55-.7-.8-1.01h0Z"/>
        </g>
        <path class="cls-2" d="M57.55,89.7c1.84-.76,3.46-1.85,4.96-3.09.71.12,1.37.22,2.26.37-1.83,1.62-3.63,2.9-5.46,4.14-.73.5-1.48,1.02-2.3,1.36-1.67.69-1.93,2.17-2.45,3.79.42-.12.65-.16.86-.25,4.73-2.07,9.24-4.54,13.3-7.75.97-.77,1.92-1.14,3.12-.83-1.29,2.55-13,9.92-18.66,11.7-.26.48-.56,1.05-.87,1.6-.31.56-.62,1.1-1.08,1.92,1.12-.4,1.98-.7,2.84-1.02,4.65-1.71,9.2-3.63,13.45-6.21,3.48-2.11,6.65-4.64,9.8-7.2.71-.58,1.45-.96,2.67-1-.64.8-1.11,1.42-1.61,2-1.99,2.3-4.42,4.09-6.87,5.86-4.69,3.39-9.89,5.8-15.22,7.95-1.97.79-3.99,1.47-5.98,2.21-.28.1-.62.18-.78.39-.8,1.04-1.55,2.11-2.51,3.44.59-.1.83-.12,1.05-.19,9.58-2.85,18.71-6.69,27.19-12.02,3.07-1.93,5.97-4.09,8.45-6.74,2.9-3.09,5.37-6.47,6.4-10.7.56-2.3.64-4.59.13-6.91-.98-4.45-4.59-7.47-9.14-7.77-4.02-.26-7.46,1.15-10.67,3.38-3.65,2.54-6.37,5.9-8.51,9.76-2,3.62-3.21,7.54-4.46,11.46-.02.07.04.17.1.36h0Z"/>
        <path class="cls-2" d="M98.47,48.13c.22.26.44.64.76.86.48.33,1.17.13,1.39-.32.25-.52-.06-1.2-.68-1.38-.64-.19-1.13.02-1.47.84h0Z"/>
        <path class="cls-3" d="M31.35,49.42s3.85-6.31,11.88-10.69c1.75-.95,3.74-1.94,5.94-2.67,1.78-.59,3.14-.9,3.86,0,1.19,1.48.89,1.48,1.48,4.75.48,2.65,2.59,8.58,2.08,11.28-.56,2.99-3.85,3.82-4.16,4.16-.29.31-4.84,4.11-7.42,3.27-2.32-.76-3.46-2.32-5.94-3.27-3.44-1.31-7.72-6.83-7.72-6.83Z"/>
        <path class="cls-3" d="M61.14,75.63c-1.46-2.37-2.91-4.72-4.35-7.06-2.46-.09-3.28-1.98-4.2-3.74-2,1.08-3.66.61-5.3-.65-4.63-3.56-9.29-7.07-13.94-10.59-1.02-.77-2.04-1.53-3.19-2.38.48-.74.9-1.37,1.39-2.11,4.73,3.45,9.31,6.79,13.87,10.11,3.53-2.2,7-4.36,10.5-6.54-1.41-5.75-2.79-11.35-4.22-17.15.83-.15,1.58-.27,2.44-.42,2.64,9.01,3.95,15.91,5.86,23.78-.78.85-1.54,1.67-2.29,2.49,1.74,2.21,2.21,4.25,1.42,6.11,1.13,2.05,2.38,4.1,3.8,6.22"/>
        <path class="cls-3" d="M57.01,58.66c.04-1.16-.14-2.13-.78-3.19-2.84,1.84-5.63,3.64-8.59,5.56.95.76,1.74,1.39,2.66,2.12,2.34-1.57,4.54-3.04,6.71-4.49Z"/>
        <path class="cls-3" d="M55.36,62.96c-.17.08-.31.21-.5.35.23.87.69,1.56,1.37,2.06.2.15.6.02.96.02.03-1.2-.81-1.78-1.18-2.64-.29.09-.48.12-.65.2h0Z"/>
        <path class="cls-3" d="M48.06,49.17c-.04-.39,0-.8-.14-1.15-1.17-3.09-2.37-6.18-3.57-9.26-.05-.13-.17-.23-.33-.44-.76.42-1.52.83-2.41,1.32,2.13,3.31,4.02,6.6,6.49,9.5l-.04.04Z"/>
        <path class="cls-3" d="M51.54,45.79c-.65-3.22-1.31-6.44-1.96-9.64-1.35.12-1.78.28-2.97,1.14,1.51,2.88,3.04,5.78,4.56,8.68l.36-.19h0Z"/>
        <path class="cls-3" d="M48.1,49.13s-.02.03-.04.04l.04-.04Z"/>
        <path class="cls-3" d="M50.29,63.15c2.34-1.57,4.54-3.04,6.71-4.49.04-1.16-.14-2.13-.78-3.19-2.84,1.84-5.63,3.64-8.59,5.56.95.76,1.74,1.39,2.66,2.12Z"/>
        <path class="cls-3" d="M56.01,62.76c-.29.09-.48.12-.65.2-.17.08-.31.21-.5.35.23.87.69,1.56,1.37,2.06.2.15.6.02.96.02.03-1.2-.81-1.78-1.18-2.64h0Z"/>
      </g>
    </g>
    <text class="cls-6" transform="translate(199.16 106.47)"><tspan class="cls-13" x="0" y="0">R</tspan><tspan x="66.47" y="0">eadyNe</tspan><tspan class="cls-12" x="455.4" y="0">s</tspan><tspan x="505.11" y="0">t</tspan></text>
    <text class="cls-5" transform="translate(206.15 159.46)"><tspan x="0" y="0">Cleaning &amp; Mai</tspan><tspan class="cls-15" x="261.58" y="0">n</tspan><tspan class="cls-11" x="282.5" y="0">t</tspan><tspan x="297.01" y="0">enan</tspan><tspan class="cls-14" x="381.32" y="0">c</tspan><tspan class="cls-10" x="400.47" y="0">e</tspan></text>
  </g>
</svg>